<svg width="182" height="56" viewBox="0 0 182 56" fill="none" xmlns="http://www.w3.org/2000/svg">
<path d="M63.1591 28.0589C65.9859 28.0589 68.2805 29.0233 70.0431 30.9522C71.8056 32.881 72.6869 35.3918 72.6869 38.4846V55.5948H67.1498V39.8315C67.1498 38.4015 66.9336 37.171 66.5013 36.1401C66.1022 35.1091 65.5036 34.3276 64.7055 33.7955C63.9406 33.2634 63.0095 32.9974 61.912 32.9974C60.0829 32.9974 58.5698 33.7457 57.3726 35.2422C56.1754 36.7054 55.5768 38.5844 55.5768 40.879V55.5948H50.1394V39.8315C50.1394 37.6366 49.6905 35.9572 48.7926 34.7932C47.8947 33.596 46.5977 32.9974 44.9016 32.9974C43.1058 32.9974 41.5927 33.7457 40.3622 35.2422C39.165 36.7054 38.5664 38.5844 38.5664 40.879V55.5948H33.0293V28.6575H36.9701L37.9179 32.1494C38.9488 30.8524 40.1959 29.8547 41.6592 29.1563C43.1224 28.4247 44.6688 28.0589 46.2984 28.0589C48.0942 28.0589 49.6905 28.4746 51.0872 29.306C52.484 30.1374 53.5814 31.2847 54.3796 32.748C55.344 31.2847 56.6077 30.1374 58.1707 29.306C59.7338 28.4746 61.3966 28.0589 63.1591 28.0589Z" fill="#DE3A31"/>
<path d="M19.5332 24.4672V18.7805H25.2698V24.4672H19.5332ZM19.633 55.5947V28.6574H25.1701V55.5947H19.633Z" fill="#DE3A31"/>
<path d="M12.9199 28.5078H15.3143V33.7456H12.4211C7.83176 33.7456 5.5371 36.2397 5.5371 41.2281V55.5947H0V28.6574H3.74129L4.68908 32.3488C6.61792 29.7881 9.36153 28.5078 12.9199 28.5078Z" fill="#DE3A31"/>
<path d="M178.949 38.7589H181.63V55.5947H178.824L178.481 53.537C176.86 55.179 174.833 56 172.401 56C169.886 56 167.787 55.1582 166.104 53.4746C164.441 51.791 163.609 49.6917 163.609 47.1768C163.609 44.641 164.441 42.5417 166.104 40.8789C167.787 39.1954 169.886 38.3536 172.401 38.3536C174.875 38.3536 176.922 39.185 178.543 40.8478L178.949 38.7589ZM168.691 51.1363C169.751 52.1755 171.071 52.6952 172.651 52.6952C174.251 52.6952 175.561 52.1755 176.579 51.1363C177.618 50.0763 178.138 48.7564 178.138 47.1768C178.138 45.5763 177.618 44.2565 176.579 43.2172C175.561 42.178 174.251 41.6584 172.651 41.6584C171.612 41.6584 170.666 41.8974 169.814 42.3755C168.982 42.8535 168.328 43.5186 167.849 44.3708C167.371 45.2022 167.132 46.1375 167.132 47.1768C167.132 48.7564 167.652 50.0763 168.691 51.1363Z" fill="#414141"/>
<path d="M156.422 36.14V32.5858H160.007V36.14H156.422ZM156.484 55.5947V38.7589H159.945V55.5947H156.484Z" fill="#414141"/>
<path d="M148.082 32.7104H151.543V55.5946H148.924L148.487 53.6928C146.866 55.2309 144.881 55.9999 142.532 55.9999C139.997 55.9999 137.897 55.1685 136.234 53.5058C134.592 51.8222 133.771 49.7125 133.771 47.1767C133.771 44.641 134.592 42.5417 136.234 40.8789C137.897 39.1953 139.997 38.3536 142.532 38.3536C144.673 38.3536 146.523 39.0083 148.082 40.3177V32.7104ZM138.885 51.1363C139.924 52.1755 141.233 52.6951 142.813 52.6951C144.393 52.6951 145.702 52.1755 146.741 51.1363C147.801 50.0762 148.331 48.7564 148.331 47.1767C148.331 46.1375 148.092 45.2022 147.614 44.3708C147.136 43.5186 146.471 42.8535 145.619 42.3754C144.787 41.8974 143.852 41.6584 142.813 41.6584C141.774 41.6584 140.828 41.8974 139.976 42.3754C139.144 42.8535 138.49 43.5186 138.012 44.3708C137.554 45.2022 137.326 46.1375 137.326 47.1767C137.326 48.7564 137.845 50.0762 138.885 51.1363Z" fill="#414141"/>
<path d="M131.345 47.208C131.345 47.5197 131.324 47.9042 131.282 48.3615H117.627C117.834 49.7125 118.396 50.783 119.31 51.5728C120.245 52.3626 121.399 52.7575 122.771 52.7575C123.436 52.7575 124.059 52.664 124.641 52.4769C125.223 52.2691 125.733 51.9885 126.169 51.6351C126.626 51.261 127.001 50.8141 127.292 50.2945H130.939C130.274 52.082 129.214 53.485 127.759 54.5035C126.304 55.5011 124.641 56 122.771 56C120.297 56 118.229 55.1582 116.567 53.4746C114.925 51.791 114.104 49.6917 114.104 47.1768C114.104 44.6618 114.925 42.5625 116.567 40.8789C118.229 39.1954 120.297 38.3536 122.771 38.3536C124.454 38.3536 125.951 38.7589 127.26 39.5695C128.57 40.3593 129.578 41.4297 130.285 42.7808C130.991 44.111 131.345 45.5867 131.345 47.208ZM122.771 41.4713C121.482 41.4713 120.381 41.8351 119.466 42.5625C118.572 43.29 117.98 44.2877 117.689 45.5555H127.884C127.676 44.7034 127.333 43.9759 126.855 43.3731C126.377 42.7496 125.785 42.2819 125.078 41.9702C124.392 41.6376 123.623 41.4713 122.771 41.4713Z" fill="#414141"/>
<path d="M104.708 38.3846C106.475 38.3846 107.909 38.9874 109.011 40.1929C110.112 41.3985 110.663 42.9677 110.663 44.9007V55.5946H107.202V45.7425C107.202 44.8488 107.067 44.0797 106.797 43.4354C106.548 42.791 106.173 42.3026 105.675 41.97C105.197 41.6375 104.615 41.4712 103.929 41.4712C102.785 41.4712 101.84 41.9389 101.092 42.8742C100.343 43.7887 99.9691 44.9631 99.9691 46.3972V55.5946H96.5708V45.7425C96.5708 44.3707 96.2902 43.3211 95.729 42.5936C95.1678 41.8453 94.3572 41.4712 93.2972 41.4712C92.1748 41.4712 91.2291 41.9389 90.46 42.8742C89.7118 43.7887 89.3376 44.9631 89.3376 46.3972V55.5946H85.877V38.7588H88.34L88.9323 40.9412C89.5767 40.1306 90.3561 39.507 91.2706 39.0705C92.1852 38.6133 93.1517 38.3846 94.1701 38.3846C95.2925 38.3846 96.2902 38.6445 97.1632 39.1641C98.0361 39.6837 98.722 40.4008 99.2209 41.3153C99.8236 40.4008 100.613 39.6837 101.59 39.1641C102.567 38.6445 103.606 38.3846 104.708 38.3846Z" fill="#414141"/>
<path d="M77.5859 55.5947V51.604H81.3896V55.5947H77.5859Z" fill="#414141"/>
<path fill-rule="evenodd" clip-rule="evenodd" d="M56.9453 6C60.3082 6.07353 65.5231 6.63986 67.3123 9.301C67.4358 9.48561 67.6827 9.59668 67.9453 9.59668C68.2079 9.59668 68.4548 9.48561 68.5783 9.301C70.3675 6.62891 75.5824 6.06258 78.9453 6C77.5578 7.02159 76.8621 8.62359 76.9699 10.1255C76.9856 10.4212 77.0463 10.7168 77.1541 11H58.7189C58.8267 10.7168 58.8894 10.4212 58.9031 10.1255C59.0128 8.61108 58.3171 7.02315 56.9453 6Z" fill="#0075BC"/>
<path fill-rule="evenodd" clip-rule="evenodd" d="M61.4493 1.33765C61.0588 1.33765 60.7598 1.64169 60.7598 2.00469C60.7598 2.38244 61.0741 2.67174 61.4493 2.67174H73.4431C73.8335 2.67174 74.1326 2.3677 74.1326 2.00469C74.1326 1.62694 73.8183 1.33765 73.4431 1.33765H61.4493ZM81.7208 0.0164527C84.374 -0.0554113 87.1644 2.16316 88.2272 4.238C89.0672 5.89087 89.1872 8.63276 88.4977 10.2138C87.6139 12.2002 85.0635 14.1884 82.6808 13.9857C81.9608 13.9286 81.197 13.7093 80.5075 13.3905C80.4771 13.3758 80.4485 13.361 80.418 13.3463L80.3723 13.3168L80.3418 13.3021C79.3381 12.7935 78.4981 12.0399 78.0486 11.1996C78.0486 11.1849 78.0334 11.1701 78.0334 11.1554C77.8086 10.7205 77.6581 10.2414 77.6277 9.71994C77.4924 7.57323 78.7971 5.22383 81.2104 5.0064H81.2256C84.0598 4.75948 84.7797 6.65927 84.9283 7.23971C85.2273 8.3711 84.8826 9.85077 83.6541 10.3722C82.8751 10.691 81.9589 10.6615 81.3608 10.2856C80.9551 10.024 80.7456 9.64807 80.7456 9.15424C80.7456 8.68989 80.8656 8.37111 81.1056 8.16841C81.4808 7.84963 82.1398 7.84963 82.3646 7.87911C82.7398 7.92334 83.0998 7.67642 83.1436 7.31341C83.1874 6.95041 82.9341 6.61689 82.5589 6.55976C82.4084 6.54502 81.1342 6.38655 80.2047 7.15494C79.8142 7.47373 79.3647 8.08365 79.3647 9.15608C79.3647 10.0995 79.799 10.8974 80.5932 11.4041C81.5684 12.027 82.9931 12.1154 84.1912 11.6068C85.9149 10.8808 86.7854 8.90916 86.2597 6.92093C85.8254 5.26805 84.2198 3.42539 81.1475 3.6723C80.2028 3.5857 71.026 2.90391 67.4433 7.29867C63.8739 2.90391 54.6838 3.5857 53.7391 3.6723C50.6497 3.42539 49.0612 5.26805 48.627 6.92093C48.1013 8.92206 48.9717 10.8956 50.6954 11.6068C51.8954 12.1154 53.3201 12.027 54.2934 11.4041C55.0876 10.8956 55.5219 10.0995 55.5219 9.15608C55.5219 8.08181 55.0572 7.47373 54.6819 7.15494C53.7525 6.38655 52.4782 6.53212 52.3278 6.55976C51.9525 6.61689 51.684 6.95225 51.743 7.31341C51.8021 7.67458 52.1487 7.93624 52.522 7.87911C52.7468 7.84963 53.3925 7.84963 53.781 8.16841C54.021 8.37111 54.141 8.68989 54.141 9.15424C54.141 9.64807 53.9315 10.024 53.5258 10.2856C52.9258 10.6634 52.0116 10.7058 51.2326 10.3722C50.004 9.86366 49.6574 8.38585 49.9583 7.23971C50.1088 6.65927 50.8288 4.75948 53.661 5.0064H53.6763C56.0895 5.22383 57.3942 7.57323 57.259 9.71994C57.2285 10.2285 57.0799 10.7058 56.8533 11.1554C56.838 11.1701 56.838 11.1849 56.838 11.1996C56.3733 12.0417 55.5486 12.7953 54.5448 13.3021L54.5143 13.3168L54.4839 13.3316C54.4534 13.3463 54.4248 13.361 54.3943 13.3758C53.7048 13.7093 52.9392 13.912 52.2211 13.971C49.8364 14.1737 47.288 12.1873 46.4042 10.199C45.6995 8.61802 45.8195 5.87613 46.6747 4.22326C47.7394 2.13368 50.5278 -0.0701524 53.1811 0.00171157H53.1963H81.6903L81.7208 0.0164527ZM65.8567 4.35409C65.8567 4.73184 66.171 5.02114 66.5462 5.02114H68.3309C68.7214 5.02114 69.0204 4.7171 69.0204 4.35409C69.0204 3.97634 68.7061 3.68705 68.3309 3.68705H66.5462C66.171 3.68705 65.8567 3.99109 65.8567 4.35409Z" fill="#0075BC"/>
<path fill-rule="evenodd" clip-rule="evenodd" d="M76.5448 13H57.3153C56.564 14.1723 55.3598 15.1238 53.9453 15.6751V25.5188C54.6446 25.1035 55.3784 24.7392 56.1416 24.4312V17.7252C56.1416 17.3533 56.4417 17.0418 56.8336 17.0418C57.2101 17.0418 57.5255 17.3382 57.5255 17.7252V23.9447C58.6983 23.5916 59.9279 23.3673 61.1975 23.2884V17.7403C61.1975 17.3684 61.4976 17.057 61.8894 17.057C62.266 17.057 62.5814 17.3533 62.5814 17.7403V23.2605C63.8468 23.2879 65.0762 23.4596 66.2534 23.7596V17.7403C66.2534 17.3684 66.5535 17.057 66.9453 17.057C67.3219 17.057 67.6373 17.3533 67.6373 17.7403V24.1792C68.9482 24.642 70.1806 25.2681 71.3092 26.0326V17.7403C71.3092 17.3684 71.6093 17.057 72.0012 17.057C72.3777 17.057 72.6931 17.3533 72.6931 17.7403V27.0831C74.1763 28.3403 75.4249 29.8599 76.3651 31.5689V17.7403C76.3651 17.3684 76.6652 17.057 77.0571 17.057C77.4336 17.057 77.749 17.3533 77.749 17.7403V34.9787C77.7796 35.09 77.8089 35.2018 77.837 35.3141C78.6858 35.97 79.4076 36.5547 79.9453 37V15.7053C78.5002 15.1257 77.2826 14.1742 76.5448 13Z" fill="#0075BC"/>
</svg>
