<svg width="26" height="26" viewBox="0 0 26 26" fill="none" xmlns="http://www.w3.org/2000/svg">
<path fill-rule="evenodd" clip-rule="evenodd" d="M12.0266 14.95H11.3974L11.0074 15.4433L8.31116 18.8486C7.92896 19.3316 7.15156 19.0612 7.15156 18.4457V8.12495C7.15156 7.69397 7.32277 7.28065 7.62751 6.9759C7.93226 6.67116 8.34559 6.49995 8.77656 6.49995H17.2266C17.6575 6.49995 18.0709 6.67116 18.3756 6.9759C18.6804 7.28065 18.8516 7.69397 18.8516 8.12495V14.3C18.8516 14.4723 18.7831 14.6377 18.6612 14.7596C18.5393 14.8815 18.374 14.95 18.2016 14.95H12.0266ZM9.33036 19.656L12.0266 16.25H18.2016C18.7187 16.25 19.2147 16.0445 19.5804 15.6788C19.9461 15.3131 20.1516 14.8171 20.1516 14.3V8.12495C20.1516 7.34919 19.8434 6.60521 19.2948 6.05666C18.7463 5.50812 18.0023 5.19995 17.2266 5.19995H8.77656C8.0008 5.19995 7.25682 5.50812 6.70828 6.05666C6.15973 6.60521 5.85156 7.34919 5.85156 8.12495V18.445C5.85156 20.2936 8.18311 21.1055 9.33036 19.656ZM9.10156 9.09995H16.9016V8.44995H9.10156V9.09995ZM16.9016 11.05H9.10156V10.4H16.9016V11.05ZM9.10156 13H16.9016V12.35H9.10156V13Z" fill="#7B7B7B"/>
</svg>
