<svg width="30" height="30" viewBox="0 0 30 30" fill="none" xmlns="http://www.w3.org/2000/svg">
<path fill-rule="evenodd" clip-rule="evenodd" d="M16.1687 17.9251V20.1631C16.1687 20.4938 16.3982 20.7856 16.7327 20.9221C17.0672 21.0586 17.464 20.9806 17.7145 20.7473L23.1655 15.5693C23.2454 15.4958 23.3088 15.4061 23.3516 15.3063C23.3943 15.2065 23.4154 15.0987 23.4134 14.9901C23.4114 14.8815 23.3864 14.7746 23.3401 14.6764C23.2937 14.5782 23.2271 14.4909 23.1445 14.4203L17.6515 9.24232C17.5246 9.12498 17.367 9.04617 17.197 9.01509C17.027 8.98401 16.8517 9.00195 16.6915 9.06682C16.357 9.18382 16.1267 9.49582 16.1267 9.82657V12.0653C13.2865 12.2011 11.1355 13.0381 9.52675 14.5373C7.021 16.8923 7 20.0461 7 20.1826C7 20.5523 7.2715 20.8831 7.66825 20.9806C7.75225 21.0001 7.8145 21.0001 7.8985 21.0001C8.05321 21.0011 8.20558 20.9622 8.3409 20.8872C8.47621 20.8122 8.58991 20.7036 8.671 20.5718C9.90325 18.5258 12.8972 18.0323 14.926 17.9393C15.34 17.9199 15.7545 17.9156 16.1687 17.9251ZM8.42125 18.9061C9.4525 17.9011 10.825 17.3671 12.0445 17.0761C13.66 16.6891 15.2755 16.6613 16.1965 16.6816L17.4115 16.7086V19.3201L21.9535 15.0061L17.3703 10.6853V13.2503L16.1867 13.3066C13.5715 13.4318 11.7242 14.1901 10.3765 15.4441C9.175 16.5743 8.65 17.9341 8.42125 18.9061Z" fill="#7B7B7B"/>
</svg>
